<?xml version="1.0" encoding="utf-8"?>
<!-- Generator: Adobe Illustrator 23.1.0, SVG Export Plug-In . SVG Version: 6.00 Build 0)  -->
<svg version="1.1" id="Layer_1" xmlns="http://www.w3.org/2000/svg" xmlns:xlink="http://www.w3.org/1999/xlink" x="0px" y="0px"
	 viewBox="0 0 16 16" style="enable-background:new 0 0 16 16;" xml:space="preserve">
<style type="text/css">
	.st0{fill:#FFFFFF;}
	.st1{opacity:0.2;fill:#FFFFFF;}
</style>
<path class="st0" d="M6.8,4C7,4.1,7.1,4.3,7.1,4.5v7.1c0,0.3-0.2,0.4-0.4,0.4c-0.1,0-0.2,0-0.3-0.1l-2.1-1.7h-2
	c-0.3,0-0.4-0.2-0.4-0.4V6.2c0-0.3,0.2-0.4,0.4-0.4h2l2.1-1.7C6.4,4,6.6,4,6.8,4z M6.2,5.4L4.7,6.6C4.6,6.7,4.5,6.7,4.4,6.7H2.6v2.6
	h1.8c0.1,0,0.2,0,0.3,0.1l1.5,1.2V5.4z M13.2,5.9c0.2,0.2,0.2,0.4,0,0.6l0,0L11.7,8l1.4,1.4c0.2,0.2,0.2,0.4,0,0.6
	c-0.2,0.2-0.4,0.2-0.6,0L11,8.6L9.6,10c-0.2,0.2-0.4,0.2-0.6,0C8.8,9.9,8.8,9.6,8.9,9.4L10.4,8L8.9,6.6c-0.1-0.2-0.1-0.5,0-0.7
	c0.1-0.2,0.4-0.2,0.6,0l0,0l1.4,1.4l1.4-1.4C12.6,5.8,13,5.8,13.2,5.9L13.2,5.9z"/>
<circle class="st1" cx="8" cy="8" r="8"/>
</svg>
